<?xml version="1.0" encoding="utf-8"?>
<!-- Generator: Adobe Illustrator 18.0.0, SVG Export Plug-In . SVG Version: 6.00 Build 0)  -->
<!DOCTYPE svg PUBLIC "-//W3C//DTD SVG 1.1//EN" "http://www.w3.org/Graphics/SVG/1.1/DTD/svg11.dtd">
<svg version="1.1" xmlns="http://www.w3.org/2000/svg" xmlns:xlink="http://www.w3.org/1999/xlink" x="0px" y="0px" width="44px"
	 height="45px" viewBox="0 0 44 45" enable-background="new 0 0 44 45" xml:space="preserve">
<g id="Working">
</g>
<g id="Tool_Kit_Financing__x5B__Dark__x5D_">
	<path id="Bag_1_" fill="#999999" d="M27.3,27.89c0.33,0.32,0.69,0.57,1.1,0.74c-0.09,0.27-0.18,0.52-0.28,0.76
		c-0.24,0.57-0.52,1.1-0.86,1.58c-0.45,0.66-0.81,1.12-1.1,1.36c-0.44,0.42-0.91,0.63-1.41,0.64c-0.36,0-0.8-0.1-1.31-0.32
		c-0.51-0.22-0.98-0.33-1.4-0.33c-0.45,0-0.93,0.11-1.45,0.33c-0.51,0.21-0.93,0.32-1.25,0.34c-0.49,0.02-0.97-0.2-1.45-0.66
		c-0.31-0.27-0.69-0.74-1.15-1.42c-0.49-0.71-0.9-1.54-1.22-2.49C15.17,27.42,15,26.43,15,25.48c0-1.1,0.23-2.04,0.69-2.83
		c0.36-0.64,0.84-1.14,1.45-1.51c0.6-0.36,1.26-0.55,1.96-0.57c0.38,0,0.89,0.12,1.51,0.36c0.63,0.24,1.03,0.36,1.2,0.36
		c0.13,0,0.57-0.14,1.34-0.43c0.71-0.26,1.31-0.37,1.81-0.33c1.34,0.11,2.35,0.66,3.01,1.63c-1.19,0.75-1.79,1.79-1.78,3.13
		C26.21,26.34,26.57,27.2,27.3,27.89z M24.13,19.2c0.57-0.71,0.87-1.48,0.87-2.3l-0.02-0.33c-0.41,0.02-0.84,0.15-1.29,0.38
		c-0.46,0.23-0.83,0.52-1.13,0.87c-0.59,0.69-0.89,1.43-0.89,2.22l0.02,0.32C22.61,20.43,23.42,20.05,24.13,19.2z M37,10
		c1.65,0,3,1.35,3,3v27c0,1.65-1.35,3-3,3H7c-1.65,0-3-1.35-3-3V13c0-1.65,1.35-3,3-3H37 M37,9H7c-2.2,0-4,1.8-4,4v27
		c0,2.2,1.8,4,4,4h30c2.2,0,4-1.8,4-4V13C41,10.8,39.2,9,37,9z M22,1c4.41,0,8,3.59,8,8h1c0-4.97-4.03-9-9-9s-9,4.03-9,9h1
		C14,4.59,17.59,1,22,1z"/>
</g>
<g id="Tool_Kit_Financing__x5B__Light__x5D_">
</g>
<g id="Guides">
</g>
</svg>
