<?xml version="1.0" encoding="utf-8"?>
<!-- Generator: Adobe Illustrator 18.0.0, SVG Export Plug-In . SVG Version: 6.00 Build 0)  -->
<!DOCTYPE svg PUBLIC "-//W3C//DTD SVG 1.1//EN" "http://www.w3.org/Graphics/SVG/1.1/DTD/svg11.dtd">
<svg version="1.1" xmlns="http://www.w3.org/2000/svg" xmlns:xlink="http://www.w3.org/1999/xlink" x="0px" y="0px" width="45px"
	 height="45px" viewBox="0 0 45 45" enable-background="new 0 0 45 45" xml:space="preserve">
<g id="Tool_Kit_Financing__x5B__Dark__x5D_">
</g>
<g id="Tool_Kit_Financing__x5B__Light__x5D_">
	<path id="Call" fill="#888888" d="M11.4,6.73c0.48,0,0.75,0.21,1.11,0.72c0.55,0.76,3.76,5.97,4.11,6.59
		c0.35,0.62,0.66,1.18,0.17,2.08c-0.49,0.9-1.13,2.04-1.53,2.76c-0.4,0.71-0.48,1.49,0.02,2.26c0.5,0.77,2.85,3.56,2.85,3.56
		l2.79,2.8c0,0,3.07,2.58,3.83,3.08c0.37,0.24,0.74,0.35,1.11,0.35c0.39,0,0.78-0.12,1.15-0.33c0.71-0.4,1.85-1.05,2.75-1.53
		c0.33-0.18,0.62-0.26,0.88-0.26c0.44,0,0.8,0.2,1.19,0.42c0.62,0.35,5.81,3.58,6.58,4.12c0.76,0.55,0.84,0.9,0.57,2.03
		c-0.28,1.14-1.16,2.75-2.77,3.92c-0.71,0.51-1.65,0.67-2.48,0.68h-0.1l-0.48-0.02c-0.77-0.05-1.35-0.19-1.35-0.19l0,0
		c-2.81-0.57-8.49-2.64-15.88-10.04C8.42,22.2,6.51,16.5,6.04,13.73v0c0,0-0.62-2.44,0.54-4.07c1.16-1.62,2.78-2.51,3.91-2.78
		C10.87,6.78,11.16,6.73,11.4,6.73 M11.4,5.85c-0.3,0-0.62,0.05-1.11,0.17c-1.28,0.31-3.1,1.3-4.42,3.12
		c-1.3,1.81-0.79,4.34-0.69,4.74c0.49,2.85,2.45,8.76,10.12,16.45c7.56,7.57,13.44,9.69,16.29,10.28l0,0
		c0.03,0.01,0.66,0.16,1.5,0.22c0.25,0.02,0.43,0.02,0.54,0.02h0.1c1.23-0.01,2.23-0.3,2.99-0.84c1.83-1.32,2.81-3.15,3.11-4.43
		c0.31-1.3,0.26-2.11-0.91-2.95c-0.83-0.59-6.05-3.83-6.66-4.17c-0.45-0.25-0.96-0.54-1.62-0.54c-0.43,0-0.86,0.12-1.3,0.37
		c-0.66,0.36-1.47,0.81-2.13,1.18l-0.63,0.35c-0.26,0.14-0.5,0.22-0.72,0.22c-0.22,0-0.42-0.07-0.63-0.2
		c-0.59-0.38-2.85-2.27-3.72-2.99l-2.73-2.75c-0.66-0.79-2.38-2.85-2.76-3.44c-0.19-0.29-0.35-0.7,0.01-1.35l0.48-0.87
		c0.34-0.61,0.73-1.31,1.05-1.9c0.72-1.34,0.2-2.26-0.18-2.93c-0.37-0.66-3.59-5.87-4.16-6.67C12.83,6.38,12.33,5.85,11.4,5.85z"/>
</g>
</svg>
